<?xml version="1.0" encoding="utf-8"?>
<!-- Generator: Adobe Illustrator 21.0.2, SVG Export Plug-In . SVG Version: 6.00 Build 0)  -->
<svg version="1.1" xmlns="http://www.w3.org/2000/svg" xmlns:xlink="http://www.w3.org/1999/xlink" x="0px" y="0px"
	 viewBox="0 0 792 576" style="enable-background:new 0 0 792 576;" xml:space="preserve">
<style type="text/css">
	.st0{fill:#CCCCCC;}
	.st1{fill:none;stroke:#000000;stroke-miterlimit:10;}
	.st2{font-family:'MyriadPro-Regular';}
	.st3{font-size:24px;}
	.st4{font-size:20px;}
	.st5{fill:#FCFCFC;stroke:#000000;stroke-width:0.25;stroke-miterlimit:10;}
	.st6{fill:#C4C4C4;}
	.st7{fill:#FFFFFF;}
	.st8{font-size:29.5092px;}
	.st9{font-size:9.5068px;}
	.st10{font-size:13.6667px;}
	.st11{font-size:8.1149px;}
	.st12{font-size:16px;}
	.st13{font-size:12px;}
	.st14{fill:none;stroke:#020202;stroke-miterlimit:10;}
</style>
<g id="Layer_1">
	<g>
		<rect y="524.2" class="st0" width="792" height="51.8"/>
		<rect class="st0" width="792" height="51.8"/>
		<g>
			<text transform="matrix(1 0 0 1 54.0007 33.1686)" class="st2 st3">LOGO</text>
			<g>
				<text transform="matrix(1 0 0 1 537.1169 32.4782)" class="st2 st4">About</text>
				<text transform="matrix(1 0 0 1 455.0007 32.4785)" class="st2 st4">Profile</text>
				<text transform="matrix(1 0 0 1 612.2542 32.4785)" class="st2 st4">Contact</text>
				<text transform="matrix(1 0 0 1 692.0007 32.4783)" class="st2 st4">Sign out</text>
			</g>
		</g>
	</g>
	<g>
		<text transform="matrix(1 0 0 1 332.3915 90.7952)" class="st2 st4">T-Shirt On Click</text>
	</g>
	<g>
		<rect x="287" y="121" width="218" height="218"/>
		<rect x="296.7" y="130.7" class="st5" width="198.6" height="198.6"/>
		<text transform="matrix(1 0 0 1 371.0807 238.6957)" class="st2 st8">IMG</text>
		<g>
			<g>
				<rect x="287" y="401" width="218" height="37.6"/>
				<g>
					<text transform="matrix(1 0 0 1 343.036 422.634)" class="st7 st2 st9">Really love the clean design! </text>
					<g>
						<rect x="294.2" y="406.7" class="st7" width="26.2" height="26.2"/>
					</g>
				</g>
				<text transform="matrix(1 0 0 1 298.8047 415.8769)"><tspan x="0" y="0" class="st2 st9">user</tspan><tspan x="2.5" y="11.4" class="st2 st9">pic</tspan></text>
			</g>
			<g>
				<rect x="287" y="438.6" class="st6" width="218" height="37.6"/>
				<g>
					<text transform="matrix(1 0 0 1 343.036 460.2854)" class="st2 st9">This shirt is one of my favorites! </text>
					<g>
						<rect x="294.2" y="444.4" class="st7" width="26.2" height="26.2"/>
						<text transform="matrix(1 0 0 1 298.8046 453.5287)"><tspan x="0" y="0" class="st2 st9">user</tspan><tspan x="2.5" y="11.4" class="st2 st9">pic</tspan></text>
					</g>
				</g>
			</g>
		</g>
		<rect x="287" y="338.3" class="st6" width="218" height="62.8"/>
		<text transform="matrix(1 0 0 1 293.1497 372.852)" class="st2 st9">Name: Gray Shirt</text>
		<g>
			<polygon class="st7" points="487.7,364 489.7,370.1 496.2,370.1 491,373.9 493,380.1 487.7,376.3 482.5,380.1 484.5,373.9 
				479.3,370.1 485.8,370.1 			"/>
			<text transform="matrix(1 0 0 1 452.7086 377.4595)" class="st2 st10">457</text>
		</g>
		<text transform="matrix(1 0 0 1 293.1495 388.0343)" class="st2 st9">Bio: Created by NYC Design</text>
		<g>
			<rect x="293.5" y="343.3" width="42.6" height="11.9"/>
			<text transform="matrix(1 0 0 1 304.3971 351.6198)" class="st7 st2 st11">Share!</text>
		</g>
		<g>
			<rect x="374.6" y="343.3" width="42.6" height="11.9"/>
			<text transform="matrix(1 0 0 1 381.4207 351.6183)" class="st7 st2 st11">Find Me!</text>
		</g>
		<g>
			<rect x="453.7" y="343.3" width="46.5" height="11.9"/>
			<text transform="matrix(1 0 0 1 459.0814 351.6186)" class="st7 st2 st11">Comment!</text>
		</g>
		<text transform="matrix(1 0 0 1 535.0435 332.6723)" class="st2 st12">Favorites/Likes</text>
		<text transform="matrix(1 0 0 1 122.2375 313.6803)" class="st2 st12">Share on Social Media</text>
		<text transform="matrix(1 0 0 1 8.6764 351.6185)" class="st2 st13">Find Me! = Link to shirt company.</text>
		<line class="st1" x1="511.3" y1="369.9" x2="584.7" y2="369.9"/>
		<line class="st1" x1="584.2" y1="369.9" x2="584.2" y2="355.7"/>
		<polygon points="584.2,347.8 579.6,355.8 588.8,355.8 		"/>
		<g>
			<line class="st1" x1="272.7" y1="354.7" x2="199.3" y2="354.7"/>
			<line class="st1" x1="199.8" y1="354.7" x2="199.8" y2="340.5"/>
			<polygon points="199.8,332.7 204.4,340.6 195.2,340.6 			"/>
		</g>
		<line class="st1" x1="274.5" y1="384.7" x2="61" y2="384.7"/>
		<line class="st1" x1="61.5" y1="384.7" x2="61.5" y2="370.5"/>
		<polygon points="61.5,362.7 66.1,370.6 56.9,370.6 		"/>
		<g>
			<text transform="matrix(1 0 0 1 548.027 412.6163)" class="st2 st12">Comments</text>
			<line class="st1" x1="511.3" y1="448.1" x2="584.7" y2="448.1"/>
			<line class="st1" x1="584.2" y1="448.1" x2="584.2" y2="433.9"/>
			<polygon points="584.2,426.1 579.6,434 588.8,434 			"/>
		</g>
	</g>
</g>
<g id="Layer_2">
</g>
</svg>
