<?xml version="1.0" encoding="utf-8"?>
<!-- Generator: Adobe Illustrator 21.0.2, SVG Export Plug-In . SVG Version: 6.00 Build 0)  -->
<svg version="1.1" xmlns="http://www.w3.org/2000/svg" xmlns:xlink="http://www.w3.org/1999/xlink" x="0px" y="0px"
	 viewBox="0 0 792 576" style="enable-background:new 0 0 792 576;" xml:space="preserve">
<style type="text/css">
	.st0{fill:#CCCCCC;}
	.st1{font-family:'MyriadPro-Regular';}
	.st2{font-size:29.283px;}
	.st3{font-size:24px;}
	.st4{font-size:12px;}
	.st5{fill:none;stroke:#000000;stroke-miterlimit:10;}
	.st6{fill:#FCFCFC;stroke:#000000;stroke-width:0.25;stroke-miterlimit:10;}
	.st7{fill:#C4C4C4;}
	.st8{fill:#FFFFFF;}
	.st9{fill:none;stroke:#020202;stroke-miterlimit:10;}
</style>
<g id="Layer_1">
	<text transform="matrix(1 0 0 1 357.3438 70.0732)" class="st1 st2">ERD</text>
	<g>
		<text transform="matrix(1 0 0 1 91.5409 127.0113)" class="st1 st3">User</text>
		<g>
			<text transform="matrix(1 0 0 1 63.1917 157.8862)"><tspan x="0" y="0" class="st1 st4">- name </tspan><tspan x="0" y="14.4" class="st1 st4">- email: string</tspan><tspan x="0" y="28.8" class="st1 st4">- password: string</tspan><tspan x="0" y="43.2" class="st1 st4">- img: text</tspan><tspan x="0" y="57.6" class="st1 st4">- bio: text</tspan><tspan x="0" y="72" class="st1 st4">- user_shirt: text</tspan><tspan x="0" y="86.4" class="st1 st4">- shirt_id: integer</tspan><tspan x="0" y="100.8" class="st1 st4">- comment_id: integer</tspan><tspan x="0" y="115.2" class="st1 st4">- favorite_id: integer</tspan></text>
			<rect x="49.5" y="138.6" class="st5" width="138.7" height="146.7"/>
		</g>
	</g>
	<g>
		<text transform="matrix(1 0 0 1 290.8776 247.1827)" class="st1 st3">Shirt</text>
		<g>
			<text transform="matrix(1 0 0 1 263.9771 278.6744)"><tspan x="0" y="0" class="st1 st4">- user_id: integer</tspan><tspan x="0" y="14.4" class="st1 st4">- comment_id: integer</tspan><tspan x="0" y="28.8" class="st1 st4">- favorite_id: integer</tspan><tspan x="0" y="43.2" class="st1 st4">- name: text</tspan><tspan x="0" y="57.6" class="st1 st4">- img: text</tspan><tspan x="0" y="72" class="st1 st4">- bio: text</tspan><tspan x="0" y="86.4" class="st1 st4">- url: text</tspan></text>
			<rect x="255.3" y="258.3" class="st5" width="128.7" height="120"/>
		</g>
	</g>
	<text transform="matrix(1 0 0 1 463.8956 178.3873)" class="st1 st3">Comment</text>
	<g>
		<text transform="matrix(1 0 0 1 458.8311 209.3163)"><tspan x="0" y="0" class="st1 st4">- user_id: integer</tspan><tspan x="0" y="14.4" class="st1 st4">- shirt_id: integer</tspan><tspan x="0" y="28.8" class="st1 st4">- content: string</tspan><tspan x="0" y="43.2" class="st1 st4">- published_date: date</tspan></text>
		<rect x="447.6" y="189" class="st5" width="134.6" height="76.9"/>
	</g>
	<g>
		<text transform="matrix(1 0 0 1 653.8466 120.0831)" class="st1 st3">Favorite</text>
		<g>
			<text transform="matrix(1 0 0 1 651.1653 151.3587)"><tspan x="0" y="0" class="st1 st4">- user_id: integer</tspan><tspan x="0" y="14.4" class="st1 st4">- shirt_id: integer</tspan></text>
			<rect x="640.4" y="130.3" class="st5" width="106.7" height="63.8"/>
		</g>
	</g>
	<line class="st5" x1="188.2" y1="145" x2="639.8" y2="145"/>
	<g>
		<line class="st5" x1="615" y1="145" x2="639.8" y2="135"/>
		<line class="st5" x1="615" y1="144.9" x2="639.8" y2="154.9"/>
	</g>
	<g>
		<line class="st5" x1="230.5" y1="278.4" x2="255.3" y2="268.4"/>
		<line class="st5" x1="230.5" y1="278.3" x2="255.3" y2="288.3"/>
	</g>
	<g>
		<line class="st5" x1="693.2" y1="219" x2="683.2" y2="194.1"/>
		<line class="st5" x1="693.1" y1="219" x2="703.1" y2="194.1"/>
	</g>
	<g>
		<line class="st5" x1="514.4" y1="291.1" x2="504.4" y2="266.3"/>
		<line class="st5" x1="514.3" y1="291.1" x2="524.3" y2="266.3"/>
	</g>
	<g>
		<line class="st5" x1="422.2" y1="217.7" x2="447" y2="207.7"/>
		<line class="st5" x1="422.2" y1="217.6" x2="447" y2="227.6"/>
	</g>
	<line class="st5" x1="188.2" y1="217.7" x2="447.1" y2="217.7"/>
	<line class="st5" x1="188.2" y1="278.3" x2="255.3" y2="278.3"/>
	<line class="st5" x1="384" y1="347" x2="693.2" y2="347"/>
	<line class="st5" x1="693.2" y1="194.1" x2="693.2" y2="347"/>
	<line class="st5" x1="514.4" y1="266.3" x2="514.4" y2="347"/>
</g>
<g id="Layer_2">
</g>
</svg>
