<?xml version="1.0" encoding="utf-8"?>
<!-- Generator: Adobe Illustrator 21.0.2, SVG Export Plug-In . SVG Version: 6.00 Build 0)  -->
<svg version="1.1" xmlns="http://www.w3.org/2000/svg" xmlns:xlink="http://www.w3.org/1999/xlink" x="0px" y="0px"
	 viewBox="0 0 792 576" style="enable-background:new 0 0 792 576;" xml:space="preserve">
<style type="text/css">
	.st0{fill:#CCCCCC;}
	.st1{font-family:'MyriadPro-Regular';}
	.st2{font-size:20px;}
	.st3{font-size:17px;}
	.st4{fill:none;stroke:#000000;stroke-miterlimit:10;}
	.st5{font-size:24px;}
	.st6{fill:#FCFCFC;stroke:#000000;stroke-width:0.25;stroke-miterlimit:10;}
	.st7{fill:#C4C4C4;}
	.st8{fill:#FFFFFF;}
	.st9{fill:none;stroke:#020202;stroke-miterlimit:10;}
</style>
<g id="Layer_1">
	<g>
		<g>
			<path class="st0" d="M487.5,270.3h-183c-6.6,0-12-5.4-12-12v-11.6c0-6.6,5.4-12,12-12h183c6.6,0,12,5.4,12,12v11.6
				C499.5,264.9,494.1,270.3,487.5,270.3z"/>
			<text transform="matrix(1 0 0 1 373.2202 221.6558)" class="st1 st2">Email</text>
		</g>
		<g>
			<path class="st0" d="M487.5,193.7h-183c-6.6,0-12-5.4-12-12v-11.6c0-6.6,5.4-12,12-12h183c6.6,0,12,5.4,12,12v11.6
				C499.5,188.3,494.1,193.7,487.5,193.7z"/>
			<text transform="matrix(1 0 0 1 371.2502 145.0442)" class="st1 st2">Name</text>
		</g>
		<g>
			<path class="st0" d="M487.5,346.9h-183c-6.6,0-12-5.4-12-12v-11.6c0-6.6,5.4-12,12-12h183c6.6,0,12,5.4,12,12v11.6
				C499.5,341.5,494.1,346.9,487.5,346.9z"/>
			<text transform="matrix(1 0 0 1 356.6401 298.2673)" class="st1 st2">Password</text>
		</g>
		<g>
			<path class="st0" d="M487.5,423.6h-183c-6.6,0-12-5.4-12-12V400c0-6.6,5.4-12,12-12h183c6.6,0,12,5.4,12,12v11.6
				C499.5,418.2,494.1,423.6,487.5,423.6z"/>
			<text transform="matrix(1 0 0 1 320.8806 374.8788)" class="st1 st2">Confrim Password</text>
		</g>
		<g>
			<path class="st0" d="M435.8,485.2h-79.6c-6.6,0-12-5.4-12-12v-11.6c0-6.6,5.4-12,12-12h79.6c6.6,0,12,5.4,12,12v11.6
				C447.8,479.8,442.4,485.2,435.8,485.2z"/>
			<text transform="matrix(1 0 0 1 367.1256 472.4456)" class="st1 st3">Sign up!</text>
		</g>
	</g>
	<g>
		<rect y="524.9" class="st0" width="792" height="51.8"/>
		<rect y="0.7" class="st0" width="792" height="51.8"/>
		<g>
			<text transform="matrix(1 0 0 1 54.0008 33.6524)" class="st1 st5">LOGO</text>
			<text transform="matrix(1 0 0 1 604.0007 32.4785)" class="st1 st2">About</text>
			<text transform="matrix(1 0 0 1 683.0007 32.4782)" class="st1 st2">Contact</text>
		</g>
	</g>
	<g>
		<text transform="matrix(1 0 0 1 261.301 97.7635)" class="st1 st2">Sign Up  Without Social Media</text>
	</g>
</g>
<g id="Layer_2">
</g>
</svg>
