<?xml version="1.0" encoding="utf-8"?>
<!-- Generator: Adobe Illustrator 21.0.2, SVG Export Plug-In . SVG Version: 6.00 Build 0)  -->
<svg version="1.1" xmlns="http://www.w3.org/2000/svg" xmlns:xlink="http://www.w3.org/1999/xlink" x="0px" y="0px"
	 viewBox="0 0 792 576" style="enable-background:new 0 0 792 576;" xml:space="preserve">
<style type="text/css">
	.st0{fill:#CCCCCC;}
	.st1{fill:none;stroke:#000000;stroke-miterlimit:10;}
	.st2{font-family:'MyriadPro-Regular';}
	.st3{font-size:24px;}
	.st4{font-size:20px;}
	.st5{fill:none;}
	.st6{font-size:10.8367px;}
	.st7{font-size:12px;}
	.st8{fill:#FCFCFC;stroke:#000000;stroke-width:0.25;stroke-miterlimit:10;}
	.st9{fill:#C4C4C4;}
	.st10{fill:#FFFFFF;}
	.st11{fill:none;stroke:#020202;stroke-miterlimit:10;}
</style>
<g id="Layer_1">
	<g>
		<rect y="524.2" class="st0" width="792" height="51.8"/>
		<rect class="st0" width="792" height="51.8"/>
		<g>
			<text transform="matrix(1 0 0 1 54.0008 32.9615)" class="st2 st3">LOGO</text>
			<text transform="matrix(1 0 0 1 604.0008 31.7877)" class="st2 st4">About</text>
			<text transform="matrix(1 0 0 1 683.0008 31.7874)" class="st2 st4">Contact</text>
		</g>
	</g>
	<line class="st1" x1="396" y1="162.2" x2="396" y2="371"/>
	<g>
		<path class="st0" d="M273.6,242.8h-183c-6.6,0-12-5.4-12-12v-11.6c0-6.6,5.4-12,12-12h183c6.6,0,12,5.4,12,12v11.6
			C285.6,237.4,280.2,242.8,273.6,242.8z"/>
		<text transform="matrix(1 0 0 1 159.3194 194.1448)" class="st2 st4">Email</text>
	</g>
	<g>
		<path class="st0" d="M273.6,324.3h-183c-6.6,0-12-5.4-12-12v-11.6c0-6.6,5.4-12,12-12h183c6.6,0,12,5.4,12,12v11.6
			C285.6,318.9,280.2,324.3,273.6,324.3z"/>
		<text transform="matrix(1 0 0 1 142.7393 275.5865)" class="st2 st4">Password</text>
	</g>
	<g>
		<text transform="matrix(1 0 0 1 531.7823 194.145)" class="st2 st4">Social Media Login</text>
		<g>
			<path class="st0" d="M701.4,242.8h-183c-6.6,0-12-5.4-12-12v-11.6c0-6.6,5.4-12,12-12h183c6.6,0,12,5.4,12,12v11.6
				C713.4,237.4,708,242.8,701.4,242.8z"/>
			<text transform="matrix(1 0 0 1 569.7715 230.9081)" class="st2 st4">Facebook</text>
		</g>
		<g>
			<path class="st0" d="M701.4,325.2h-183c-6.6,0-12-5.4-12-12v-11.6c0-6.6,5.4-12,12-12h183c6.6,0,12,5.4,12,12v11.6
				C713.4,319.8,708,325.2,701.4,325.2z"/>
			<text transform="matrix(1 0 0 1 580.8013 313.0491)" class="st2 st4">Twitter</text>
		</g>
	</g>
	<g>
		<g>
			<path class="st0" d="M249.1,366h-43.4c-6.2,0-11.3-5.1-11.3-11.3l0,0c0-6.2,5.1-11.3,11.3-11.3h43.4c6.2,0,11.3,5.1,11.3,11.3
				l0,0C260.4,360.9,255.3,366,249.1,366z"/>
			<text transform="matrix(1 0 0 1 208.9972 357.8615)" class="st2 st6">Sign up!</text>
		</g>
		<g>
			<path class="st0" d="M158.5,366h-43.4c-6.2,0-11.3-5.1-11.3-11.3l0,0c0-6.2,5.1-11.3,11.3-11.3h43.4c6.2,0,11.3,5.1,11.3,11.3
				l0,0C169.8,360.9,164.7,366,158.5,366z"/>
			<text transform="matrix(1 0 0 1 121.6404 357.8615)" class="st2 st6">Log in!</text>
		</g>
	</g>
	<g>
		<text transform="matrix(1 0 0 1 304.301 86)" class="st2 st4">Home Page and Login</text>
	</g>
	<text transform="matrix(1 0 0 1 229 142.9561)" class="st2 st7">- favorite_id: integer</text>
</g>
<g id="Layer_2">
</g>
</svg>
