<?xml version="1.0" encoding="utf-8"?>
<!-- Generator: Adobe Illustrator 21.0.2, SVG Export Plug-In . SVG Version: 6.00 Build 0)  -->
<svg version="1.1" xmlns="http://www.w3.org/2000/svg" xmlns:xlink="http://www.w3.org/1999/xlink" x="0px" y="0px"
	 viewBox="0 0 792 576" style="enable-background:new 0 0 792 576;" xml:space="preserve">
<style type="text/css">
	.st0{fill:#CCCCCC;}
	.st1{fill:none;stroke:#000000;stroke-miterlimit:10;}
	.st2{font-family:'MyriadPro-Regular';}
	.st3{font-size:24px;}
	.st4{font-size:20px;}
	.st5{fill:#FCFCFC;stroke:#000000;stroke-width:0.25;stroke-miterlimit:10;}
	.st6{font-size:18.5092px;}
	.st7{fill:#C4C4C4;}
	.st8{fill:#FFFFFF;}
	.st9{fill:none;stroke:#020202;stroke-miterlimit:10;}
</style>
<g id="Layer_1">
	<g>
		<rect y="524.9" class="st0" width="792" height="51.8"/>
		<rect y="0.7" class="st0" width="792" height="51.8"/>
		<g>
			<text transform="matrix(1 0 0 1 54.0007 33.8594)" class="st2 st3">LOGO</text>
			<g>
				<text transform="matrix(1 0 0 1 537.1169 33.169)" class="st2 st4">About</text>
				<text transform="matrix(1 0 0 1 455.0007 33.1693)" class="st2 st4">Profile</text>
				<text transform="matrix(1 0 0 1 612.2542 33.1693)" class="st2 st4">Contact</text>
				<text transform="matrix(1 0 0 1 692.0007 33.1691)" class="st2 st4">Sign out</text>
			</g>
		</g>
	</g>
	<g>
		<text transform="matrix(1 0 0 1 346.2408 91.4859)" class="st2 st4">T-Shirt Page</text>
	</g>
	<g>
		<g>
			<g>
				<rect x="120.8" y="124.4" width="136.7" height="136.7"/>
				<rect x="126.9" y="130.5" class="st5" width="124.6" height="124.6"/>
				<text transform="matrix(1 0 0 1 173.5391 198.1826)" class="st2 st6">IMG</text>
			</g>
			<g>
				<rect x="120.8" y="261.3" class="st7" width="136.7" height="23.6"/>
				<polygon class="st8" points="242.8,267.1 244.3,271.7 249.1,271.7 245.2,274.5 246.7,279 242.8,276.2 239,279 240.5,274.5 
					236.6,271.7 241.4,271.7 				"/>
			</g>
		</g>
		<g>
			<g>
				<rect x="327.6" y="124.4" width="136.7" height="136.7"/>
				<rect x="333.7" y="130.5" class="st5" width="124.6" height="124.6"/>
				<text transform="matrix(1 0 0 1 380.3691 198.1826)" class="st2 st6">IMG</text>
			</g>
			<g>
				<rect x="327.6" y="261.3" class="st7" width="136.7" height="23.6"/>
				<polygon class="st8" points="449.7,267.1 451.1,271.7 455.9,271.7 452,274.5 453.5,279 449.7,276.2 445.8,279 447.3,274.5 
					443.5,271.7 448.2,271.7 				"/>
			</g>
		</g>
		<g>
			<g>
				<rect x="534.5" y="124.4" width="136.7" height="136.7"/>
				<rect x="540.5" y="130.5" class="st5" width="124.6" height="124.6"/>
				<text transform="matrix(1 0 0 1 587.1992 198.1826)" class="st2 st6">IMG</text>
			</g>
			<g>
				<rect x="534.5" y="261.3" class="st7" width="136.7" height="23.6"/>
				<polygon class="st8" points="656.5,267.1 658,271.7 662.7,271.7 658.9,274.5 660.3,279 656.5,276.2 652.7,279 654.1,274.5 
					650.3,271.7 655,271.7 				"/>
			</g>
		</g>
	</g>
	<g>
		<g>
			<g>
				<rect x="120.8" y="317.7" width="136.7" height="136.7"/>
				<rect x="126.9" y="323.8" class="st5" width="124.6" height="124.6"/>
				<text transform="matrix(1 0 0 1 173.5391 391.5498)" class="st2 st6">IMG</text>
			</g>
			<g>
				<rect x="120.8" y="454.6" class="st7" width="136.7" height="23.6"/>
				<polygon class="st8" points="242.8,460.5 244.3,465 249.1,465 245.2,467.8 246.7,472.3 242.8,469.6 239,472.3 240.5,467.8 
					236.6,465 241.4,465 				"/>
			</g>
		</g>
		<g>
			<g>
				<rect x="327.6" y="317.7" width="136.7" height="136.7"/>
				<rect x="333.7" y="323.8" class="st5" width="124.6" height="124.6"/>
				<text transform="matrix(1 0 0 1 380.3691 391.5498)" class="st2 st6">IMG</text>
			</g>
			<g>
				<rect x="327.6" y="454.6" class="st7" width="136.7" height="23.6"/>
				<polygon class="st8" points="449.7,460.5 451.1,465 455.9,465 452,467.8 453.5,472.3 449.7,469.6 445.8,472.3 447.3,467.8 
					443.5,465 448.2,465 				"/>
			</g>
		</g>
		<g>
			<g>
				<rect x="534.5" y="317.7" width="136.7" height="136.7"/>
				<rect x="540.5" y="323.8" class="st5" width="124.6" height="124.6"/>
				<text transform="matrix(1 0 0 1 587.1992 391.5498)" class="st2 st6">IMG</text>
			</g>
			<g>
				<rect x="534.5" y="454.6" class="st7" width="136.7" height="23.6"/>
				<polygon class="st8" points="656.5,460.5 658,465 662.7,465 658.9,467.8 660.3,472.3 656.5,469.6 652.7,472.3 654.1,467.8 
					650.3,465 655,465 				"/>
			</g>
		</g>
	</g>
</g>
<g id="Layer_2">
</g>
</svg>
