<?xml version="1.0" encoding="utf-8"?>
<!-- Generator: Adobe Illustrator 21.0.2, SVG Export Plug-In . SVG Version: 6.00 Build 0)  -->
<svg version="1.1" xmlns="http://www.w3.org/2000/svg" xmlns:xlink="http://www.w3.org/1999/xlink" x="0px" y="0px"
	 viewBox="0 0 792 576" style="enable-background:new 0 0 792 576;" xml:space="preserve">
<style type="text/css">
	.st0{fill:#CCCCCC;}
	.st1{fill:none;stroke:#000000;stroke-miterlimit:10;}
	.st2{fill:#FCFCFC;stroke:#000000;stroke-width:0.25;stroke-miterlimit:10;}
	.st3{fill:#C4C4C4;}
	.st4{fill:#FFFFFF;}
	.st5{font-family:'MyriadPro-Regular';}
	.st6{font-size:12.4324px;}
	.st7{font-size:24px;}
	.st8{font-size:20px;}
	.st9{font-size:19.0372px;}
	.st10{fill:none;stroke:#020202;stroke-miterlimit:10;}
</style>
<g id="Layer_1">
	<g>
		<g>
			<path class="st0" d="M421.9,506.2h-51.8c-6.6,0-12-5.4-12-12v-2c0-6.6,5.4-12,12-12h51.8c6.6,0,12,5.4,12,12v2
				C433.9,500.8,428.5,506.2,421.9,506.2z"/>
			<text transform="matrix(1 0 0 1 380.4277 496.8961)" class="st5 st6">Done!</text>
		</g>
		<g>
			<rect y="524.2" class="st0" width="792" height="51.8"/>
			<rect class="st0" width="792" height="51.8"/>
			<g>
				<text transform="matrix(1 0 0 1 54.0008 33.1686)" class="st5 st7">LOGO</text>
				<g>
					<text transform="matrix(1 0 0 1 537.1168 32.4782)" class="st5 st8">About</text>
					<text transform="matrix(1 0 0 1 455.0007 32.4785)" class="st5 st8">Profile</text>
					<text transform="matrix(1 0 0 1 612.254 32.4785)" class="st5 st8">Contact</text>
					<text transform="matrix(1 0 0 1 692.0006 32.4783)" class="st5 st8">Sign out</text>
				</g>
			</g>
		</g>
		<g>
			<text transform="matrix(1 0 0 1 330.5209 90.7952)" class="st5 st8">Edit User Profile</text>
		</g>
		<g>
			<g>
				<g>
					<path class="st0" d="M282,248.9H109c-6.6,0-12-5.4-12-12v-9.8c0-6.6,5.4-12,12-12h173c6.6,0,12,5.4,12,12v9.8
						C294,243.5,288.6,248.9,282,248.9z"/>
					<text transform="matrix(1 0 0 1 173.8174 202.6061)" class="st5 st9">Email</text>
				</g>
				<g>
					<path class="st0" d="M282,162.8H109c-6.6,0-12-5.4-12-12V141c0-6.6,5.4-12,12-12h173c6.6,0,12,5.4,12,12v9.8
						C294,157.4,288.6,162.8,282,162.8z"/>
					<text transform="matrix(1 0 0 1 171.9414 116.4962)" class="st5 st9">Name</text>
				</g>
				<g>
					<path class="st0" d="M282,335H109c-6.6,0-12-5.4-12-12v-9.8c0-6.6,5.4-12,12-12h173c6.6,0,12,5.4,12,12v9.8
						C294,329.6,288.6,335,282,335z"/>
					<text transform="matrix(1 0 0 1 158.0352 288.7159)" class="st5 st9">Password</text>
				</g>
				<g>
					<path class="st0" d="M282,421.2H109c-6.6,0-12-5.4-12-12v-9.8c0-6.6,5.4-12,12-12h173c6.6,0,12,5.4,12,12v9.8
						C294,415.8,288.6,421.2,282,421.2z"/>
					<text transform="matrix(1 0 0 1 123.9971 374.826)" class="st5 st9">Confrim Password</text>
				</g>
			</g>
			<g>
				<g>
					<path class="st0" d="M693.3,373.4h-173c-6.6,0-12-5.4-12-12v-86.4c0-6.6,5.4-12,12-12h173c6.6,0,12,5.4,12,12v86.4
						C705.3,368,699.9,373.4,693.3,373.4z"/>
					<text transform="matrix(1 0 0 1 594.1927 250.576)" class="st5 st9">Bio</text>
				</g>
				<path class="st0" d="M693.3,210.6h-173c-6.6,0-12-5.4-12-12v-9.8c0-6.6,5.4-12,12-12h173c6.6,0,12,5.4,12,12v9.8
					C705.3,205.2,699.9,210.6,693.3,210.6z"/>
				<text transform="matrix(1 0 0 1 568.2355 164.2393)" class="st5 st9">Profile Pic</text>
			</g>
			<line class="st10" x1="401.2" y1="143.5" x2="401.2" y2="378.2"/>
		</g>
	</g>
</g>
<g id="Layer_2">
</g>
</svg>
