<?xml version="1.0" encoding="utf-8"?>
<!-- Generator: Adobe Illustrator 21.0.2, SVG Export Plug-In . SVG Version: 6.00 Build 0)  -->
<svg version="1.1" xmlns="http://www.w3.org/2000/svg" xmlns:xlink="http://www.w3.org/1999/xlink" x="0px" y="0px"
	 viewBox="0 0 792 576" style="enable-background:new 0 0 792 576;" xml:space="preserve">
<style type="text/css">
	.st0{fill:#CCCCCC;}
	.st1{fill:none;stroke:#000000;stroke-miterlimit:10;}
	.st2{fill:#FCFCFC;stroke:#000000;stroke-width:0.25;stroke-miterlimit:10;}
	.st3{fill:#C4C4C4;}
	.st4{fill:#FFFFFF;}
	.st5{font-family:'MyriadPro-Regular';}
	.st6{font-size:24px;}
	.st7{font-size:20px;}
	.st8{font-size:16.0405px;}
	.st9{font-size:33.5261px;}
	.st10{font-size:13px;}
	.st11{font-size:8.1149px;}
	.st12{fill:none;stroke:#020202;stroke-miterlimit:10;}
</style>
<g id="Layer_1">
	<g>
		<g>
			<rect y="524.2" class="st0" width="792" height="51.8"/>
			<rect class="st0" width="792" height="51.8"/>
			<g>
				<text transform="matrix(1 0 0 1 54.0007 33.1686)" class="st5 st6">LOGO</text>
				<g>
					<text transform="matrix(1 0 0 1 537.1169 32.4782)" class="st5 st7">About</text>
					<text transform="matrix(1 0 0 1 455.0007 32.4785)" class="st5 st7">Profile</text>
					<text transform="matrix(1 0 0 1 612.2542 32.4785)" class="st5 st7">Contact</text>
					<text transform="matrix(1 0 0 1 692.0007 32.4783)" class="st5 st7">Sign out</text>
				</g>
			</g>
		</g>
		<g>
			<text transform="matrix(1 0 0 1 212.8124 90.7952)" class="st5 st7">User Profile and Their Uploaded Shirts if Any.</text>
		</g>
		<g>
			<g>
				<g>
					<rect x="409.1" y="134.8" width="118.5" height="118.5"/>
					<rect x="414.3" y="140" class="st2" width="108" height="108"/>
					<text transform="matrix(1 0 0 1 454.7574 198.7262)" class="st5 st8">IMG</text>
				</g>
				<g>
					<rect x="409.1" y="253.4" class="st3" width="118.5" height="20.4"/>
					<polygon class="st4" points="514.8,258.5 516.1,262.4 520.2,262.4 516.9,264.8 518.1,268.7 514.8,266.3 511.5,268.7 
						512.8,264.8 509.4,262.4 513.5,262.4 					"/>
				</g>
			</g>
			<g>
				<g>
					<rect x="588.3" y="134.8" width="118.5" height="118.5"/>
					<rect x="593.6" y="140" class="st2" width="108" height="108"/>
					<text transform="matrix(1 0 0 1 634.001 198.7262)" class="st5 st8">IMG</text>
				</g>
				<g>
					<rect x="588.3" y="253.4" class="st3" width="118.5" height="20.4"/>
					<polygon class="st4" points="694.1,258.5 695.3,262.4 699.5,262.4 696.1,264.8 697.4,268.7 694.1,266.3 690.7,268.7 692,264.8 
						688.7,262.4 692.8,262.4 					"/>
				</g>
			</g>
		</g>
		<g>
			<g>
				<g>
					<rect x="409.1" y="333.2" width="118.5" height="118.5"/>
					<rect x="414.3" y="338.4" class="st2" width="108" height="108"/>
					<text transform="matrix(1 0 0 1 454.7574 397.1465)" class="st5 st8">IMG</text>
				</g>
				<g>
					<rect x="409.1" y="451.8" class="st3" width="118.5" height="20.4"/>
					<polygon class="st4" points="514.8,456.9 516.1,460.8 520.2,460.8 516.9,463.2 518.1,467.2 514.8,464.7 511.5,467.2 
						512.8,463.2 509.4,460.8 513.5,460.8 					"/>
				</g>
			</g>
			<g>
				<g>
					<rect x="588.3" y="333.2" width="118.5" height="118.5"/>
					<rect x="593.6" y="338.4" class="st2" width="108" height="108"/>
					<text transform="matrix(1 0 0 1 634.001 397.1465)" class="st5 st8">IMG</text>
				</g>
				<g>
					<rect x="588.3" y="451.8" class="st3" width="118.5" height="20.4"/>
					<polygon class="st4" points="694.1,456.9 695.3,460.8 699.5,460.8 696.1,463.2 697.4,467.2 694.1,464.7 690.7,467.2 692,463.2 
						688.7,460.8 692.8,460.8 					"/>
				</g>
			</g>
		</g>
		<g>
			<g>
				<rect x="85.2" y="138.4" width="247.7" height="247.7"/>
				<rect x="96.2" y="149.4" class="st2" width="225.7" height="225.7"/>
			</g>
			<text transform="matrix(1 0 0 1 177.4666 251.4321)"><tspan x="0" y="0" class="st5 st9">User</tspan><tspan x="10.4" y="40.2" class="st5 st9">pic</tspan></text>
			<g>
				<rect x="85.2" y="386" class="st3" width="247.7" height="66.5"/>
				<g>
					<text transform="matrix(1.0067 0 0 1 94.6207 423.1647)" class="st5 st10">Name: Josh</text>
					<text transform="matrix(1.0067 0 0 1 94.6212 442.0797)" class="st5 st10">Bio: Lover of clean design and solid colors!</text>
				</g>
				<g>
					<g>
						<g>
							<rect x="267.5" y="392.7" width="57.5" height="11.9"/>
						</g>
						<text transform="matrix(1 0 0 1 274.1954 401.0446)" class="st4 st5 st11">Upload Shirt!</text>
					</g>
					<g>
						<g>
							<rect x="93" y="392.7" width="57.5" height="11.9"/>
						</g>
						<text transform="matrix(1 0 0 1 102.7397 401.0446)" class="st4 st5 st11">Edit Profile!</text>
					</g>
				</g>
			</g>
		</g>
		<g>
			<g>
				<rect x="625.8" y="481.2" width="43.5" height="16.5"/>
				<text transform="matrix(1 0 0 1 629.7637 493.2468)" class="st4 st5 st10">Delete</text>
			</g>
			<g>
				<rect x="446.6" y="481.2" width="43.5" height="16.5"/>
				<text transform="matrix(1 0 0 1 450.5204 493.2468)" class="st4 st5 st10">Delete</text>
			</g>
		</g>
		<g>
			<g>
				<rect x="626.3" y="282.7" width="43.5" height="16.5"/>
				<text transform="matrix(1 0 0 1 630.2915 294.8128)" class="st4 st5 st10">Delete</text>
			</g>
			<g>
				<rect x="447.1" y="282.7" width="43.5" height="16.5"/>
				<text transform="matrix(1 0 0 1 451.0482 294.8128)" class="st4 st5 st10">Delete</text>
			</g>
		</g>
	</g>
</g>
<g id="Layer_2">
</g>
</svg>
