<?xml version="1.0" encoding="utf-8"?>
<!-- Generator: Adobe Illustrator 21.0.2, SVG Export Plug-In . SVG Version: 6.00 Build 0)  -->
<svg version="1.1" xmlns="http://www.w3.org/2000/svg" xmlns:xlink="http://www.w3.org/1999/xlink" x="0px" y="0px"
	 viewBox="0 0 792 576" style="enable-background:new 0 0 792 576;" xml:space="preserve">
<style type="text/css">
	.st0{fill:#CCCCCC;}
	.st1{fill:none;stroke:#000000;stroke-miterlimit:10;}
	.st2{fill:#FCFCFC;stroke:#000000;stroke-width:0.25;stroke-miterlimit:10;}
	.st3{fill:#C4C4C4;}
	.st4{fill:#FFFFFF;}
	.st5{fill:none;stroke:#020202;stroke-miterlimit:10;}
	.st6{font-family:'MyriadPro-Regular';}
	.st7{font-size:12.4324px;}
	.st8{font-size:24px;}
	.st9{font-size:20px;}
	.st10{font-size:19.0372px;}
</style>
<g id="Layer_1">
	<g>
		<path class="st0" d="M421.9,479.5h-51.8c-6.6,0-12-5.4-12-12v-2c0-6.6,5.4-12,12-12h51.8c6.6,0,12,5.4,12,12v2
			C433.9,474.1,428.5,479.5,421.9,479.5z"/>
		<text transform="matrix(1 0 0 1 380.4278 470.1802)" class="st6 st7">Done!</text>
	</g>
	<g>
		<rect x="0" y="523.9" class="st0" width="792" height="51.8"/>
		<rect x="0" y="-0.3" class="st0" width="792" height="51.8"/>
		<g>
			<text transform="matrix(1 0 0 1 54.001 32.8837)" class="st6 st8">LOGO</text>
			<g>
				<text transform="matrix(1 0 0 1 537.1169 32.1933)" class="st6 st9">About</text>
				<text transform="matrix(1 0 0 1 455.0009 32.1937)" class="st6 st9">Profile</text>
				<text transform="matrix(1 0 0 1 612.2542 32.1935)" class="st6 st9">Contact</text>
				<text transform="matrix(1 0 0 1 692.0007 32.1934)" class="st6 st9">Sign out</text>
			</g>
		</g>
	</g>
	<g>
		<text transform="matrix(1 0 0 1 343.7715 91.5111)" class="st6 st9">Upload Shirt</text>
	</g>
	<g>
		<path class="st0" d="M482.5,272h-173c-6.6,0-12-5.4-12-12v-9.8c0-6.6,5.4-12,12-12h173c6.6,0,12,5.4,12,12v9.8
			C494.5,266.6,489.1,272,482.5,272z"/>
		<text transform="matrix(1 0 0 1 352.9835 225.6643)" class="st6 st10">Shirt Image</text>
	</g>
	<g>
		<path class="st0" d="M482.5,197.8h-173c-6.6,0-12-5.4-12-12V176c0-6.6,5.4-12,12-12h173c6.6,0,12,5.4,12,12v9.8
			C494.5,192.4,489.1,197.8,482.5,197.8z"/>
		<text transform="matrix(1 0 0 1 372.4408 151.5055)" class="st6 st10">Name</text>
	</g>
	<g>
		<path class="st0" d="M482.5,346.2h-173c-6.6,0-12-5.4-12-12v-9.8c0-6.6,5.4-12,12-12h173c6.6,0,12,5.4,12,12v9.8
			C494.5,340.8,489.1,346.2,482.5,346.2z"/>
		<text transform="matrix(1 0 0 1 383.3873 299.8229)" class="st6 st10">Bio</text>
	</g>
	<g>
		<path class="st0" d="M482.5,420.3h-173c-6.6,0-12-5.4-12-12v-9.8c0-6.6,5.4-12,12-12h173c6.6,0,12,5.4,12,12v9.8
			C494.5,414.9,489.1,420.3,482.5,420.3z"/>
		<text transform="matrix(1 0 0 1 347.9128 373.982)" class="st6 st10">Link To Shirt</text>
	</g>
</g>
<g id="Layer_2">
</g>
</svg>
