<svg xmlns="http://www.w3.org/2000/svg" xmlns:xlink="http://www.w3.org/1999/xlink" viewBox="0 0 216 215.99"><defs><style>.cls-1,.cls-2{fill:none;}.cls-2{stroke:#231f20;}.cls-2,.cls-3{stroke-miterlimit:10;}.cls-3{stroke:#000;stroke-width:4px;}.cls-4{font-size:28.34px;fill:#231f20;font-family:Avenir-Black, Avenir;letter-spacing:0.08em;}.cls-5{letter-spacing:-0.02em;}.cls-6{fill:url(#New_Pattern_Swatch_2);}</style><pattern id="New_Pattern_Swatch_2" data-name="New Pattern Swatch 2" width="100" height="104.5" patternUnits="userSpaceOnUse" viewBox="0 0 100 104.5"><rect class="cls-1" width="100" height="104.5"/><line class="cls-2" y1="2.25" x2="100" y2="2.25"/><line class="cls-2" y1="7.01" x2="100" y2="7.01"/><line class="cls-2" y1="11.77" x2="100" y2="11.77"/><line class="cls-2" y1="16.54" x2="100" y2="16.54"/><line class="cls-2" y1="21.3" x2="100" y2="21.3"/><line class="cls-2" y1="26.06" x2="100" y2="26.06"/><line class="cls-2" y1="30.82" x2="100" y2="30.82"/><line class="cls-2" y1="35.58" x2="100" y2="35.58"/><line class="cls-2" y1="40.35" x2="100" y2="40.35"/><line class="cls-2" y1="45.11" x2="100" y2="45.11"/><line class="cls-2" y1="49.87" x2="100" y2="49.87"/><line class="cls-2" y1="54.63" x2="100" y2="54.63"/><line class="cls-2" y1="59.39" x2="100" y2="59.39"/><line class="cls-2" y1="64.15" x2="100" y2="64.15"/><line class="cls-2" y1="68.92" x2="100" y2="68.92"/><line class="cls-2" y1="73.68" x2="100" y2="73.68"/><line class="cls-2" y1="78.44" x2="100" y2="78.44"/><line class="cls-2" y1="83.2" x2="100" y2="83.2"/><line class="cls-2" y1="87.96" x2="100" y2="87.96"/><line class="cls-2" y1="92.73" x2="100" y2="92.73"/><line class="cls-2" y1="97.49" x2="100" y2="97.49"/><line class="cls-2" y1="102.25" x2="100" y2="102.25"/></pattern></defs><title>Asset 5highest</title><g id="Layer_2" data-name="Layer 2"><g id="Layer_3" data-name="Layer 3"><path class="cls-3" d="M131.29,127.12H32.84L82.06,41.85Zm-92.16-3.64H125L82.06,49.13Z"/><path class="cls-3" d="M180.11,127.12H81.66l49.23-85.26ZM88,123.48h85.86L130.89,49.13Z"/><text class="cls-4" transform="translate(20.16 157.55)">M<tspan class="cls-5" x="28.88" y="0">A</tspan><tspan x="49.4" y="0">TERIALS </tspan></text><path class="cls-6" d="M216,216H0V0H216ZM13,203H203V13H13Z"/></g></g></svg>