<svg xmlns="http://www.w3.org/2000/svg" viewBox="0 0 221 220.99"><defs><style>.cls-1{fill:none;stroke-width:2px;}.cls-1,.cls-2{stroke:#231f20;}.cls-2{fill:#fff;stroke-linecap:round;stroke-miterlimit:10;stroke-width:5px;}</style></defs><title>Asset 6highest</title><g id="Layer_2" data-name="Layer 2"><g id="Layer_2-2" data-name="Layer 2"><path d="M133.39,44.35l49.23,85.26H35.34L84.56,44.35,109,86.64l24.41-42.28M131.69,126h44.63L133.39,51.62,111.07,90.27,131.69,126m-90.06,0H86.26l20.62-35.71L84.56,51.62,41.63,126m48.83,0h37L109,93.91,90.46,126m42.93-89.63-3.46,6L109,78.64,88,42.35l-3.46-6-3.46,6L31.87,127.62l-3.46,6H189.54l-3.46-6L136.85,42.35l-3.46-6ZM48.56,122l36-62.36,17.7,30.65L83.95,122Zm67.13-31.71,17.7-30.65,36,62.36H134L115.69,90.27ZM97.38,122,109,101.91,120.56,122Z"/><path class="cls-1" d="M24.7,140h6.69L36,153.08h.06L40.71,140h6.66v20.06H42.95V144.67h-.06l-5.27,15.39H34.25l-5.07-15.39h-.06v15.39H24.7Z"/><path class="cls-1" d="M60.18,140h3.66l8.73,20.06h-5l-1.73-4.25H58.05l-1.67,4.25H51.51Zm1.7,5.84-2.44,6.23h4.9Z"/><path class="cls-1" d="M78,143.9H72.25V140H88.12v3.91H82.4v16.15H78Z"/><path class="cls-1" d="M92.66,140h13.63v4.08H97.08v3.74h8.7v4.08h-8.7V156h9.72v4.08H92.66Z"/><path class="cls-1" d="M112.46,140h7.76a13.71,13.71,0,0,1,2.9.3,6.9,6.9,0,0,1,2.41,1,5,5,0,0,1,1.64,1.87,6.33,6.33,0,0,1,.61,2.93,5.89,5.89,0,0,1-1.11,3.61,5,5,0,0,1-3.23,1.88l5.1,8.47h-5.3l-4.19-8h-2.18v8h-4.42Zm4.42,8.3h2.61q.6,0,1.26,0A3.94,3.94,0,0,0,122,148a2.09,2.09,0,0,0,.89-.67,2,2,0,0,0,.35-1.28,2.12,2.12,0,0,0-.31-1.22,2.09,2.09,0,0,0-.79-.69,3.53,3.53,0,0,0-1.11-.33,9,9,0,0,0-1.22-.08h-2.89Z"/><path class="cls-1" d="M132.9,140h4.42v20.06H132.9Z"/><path class="cls-1" d="M150.07,140h3.66l8.73,20.06h-5l-1.73-4.25h-7.79l-1.67,4.25H141.4Zm1.7,5.84-2.44,6.23h4.9Z"/><path class="cls-1" d="M166.76,140h4.42v16h8.19v4.08H166.76Z"/><path class="cls-1" d="M193.85,144.89a3.15,3.15,0,0,0-1.46-1,5.23,5.23,0,0,0-1.74-.33,4.56,4.56,0,0,0-1,.11,3.82,3.82,0,0,0-1,.35,2.11,2.11,0,0,0-.74.64,1.61,1.61,0,0,0-.28,1,1.6,1.6,0,0,0,.68,1.39,6.41,6.41,0,0,0,1.71.82q1,.34,2.22.68a9.17,9.17,0,0,1,2.22,1,5.27,5.27,0,0,1,1.71,1.67,5.1,5.1,0,0,1,.68,2.81,6.46,6.46,0,0,1-.62,2.92,5.92,5.92,0,0,1-1.69,2.07,7.16,7.16,0,0,1-2.47,1.22,11.3,11.3,0,0,1-6.59-.2,9.09,9.09,0,0,1-3.12-1.93l3.15-3.46a4.59,4.59,0,0,0,1.71,1.4,4.82,4.82,0,0,0,3.23.37,3.54,3.54,0,0,0,1-.38,2.14,2.14,0,0,0,.71-.65,1.63,1.63,0,0,0,.27-.94,1.7,1.7,0,0,0-.69-1.43,6.42,6.42,0,0,0-1.74-.89q-1-.37-2.27-.74a10.15,10.15,0,0,1-2.27-1,5.46,5.46,0,0,1-1.74-1.64,4.7,4.7,0,0,1-.69-2.69,6,6,0,0,1,.64-2.83,6.15,6.15,0,0,1,1.7-2,7.4,7.4,0,0,1,2.45-1.23,10.05,10.05,0,0,1,2.86-.41A11.27,11.27,0,0,1,194,140a7.6,7.6,0,0,1,2.86,1.62Z"/><path class="cls-2" d="M218.5,218.49H2.5V2.5h216Zm-203-13h190v-190h-190Z"/></g></g></svg>