<svg xmlns="http://www.w3.org/2000/svg" xmlns:xlink="http://www.w3.org/1999/xlink" viewBox="0 0 216 215.99"><defs><style>.cls-1{fill:none;}.cls-2,.cls-6{fill:#231f20;}.cls-3,.cls-4{fill:url(#Perfect_Dot);}.cls-4,.cls-5{stroke-miterlimit:10;}.cls-4{stroke:url(#Perfect_Dot);}.cls-5{stroke:#000;}.cls-6{font-size:28.34px;font-family:Avenir-Black, Avenir;letter-spacing:0.08em;}.cls-7{letter-spacing:-0.02em;}</style><pattern id="Perfect_Dot" data-name="Perfect Dot" width="99.68" height="89.71" patternUnits="userSpaceOnUse" viewBox="0 0 99.68 89.71"><rect class="cls-1" width="99.68" height="89.71"/><circle class="cls-2" cx="3.77" cy="3.77" r="2.6"/><circle class="cls-2" cx="11.45" cy="3.77" r="2.6"/><circle class="cls-2" cx="19.13" cy="3.77" r="2.6"/><circle class="cls-2" cx="26.81" cy="3.77" r="2.6"/><circle class="cls-2" cx="34.48" cy="3.77" r="2.6"/><circle class="cls-2" cx="42.16" cy="3.77" r="2.6"/><circle class="cls-2" cx="49.84" cy="3.77" r="2.6"/><circle class="cls-2" cx="57.52" cy="3.77" r="2.6"/><circle class="cls-2" cx="65.2" cy="3.77" r="2.6"/><circle class="cls-2" cx="72.88" cy="3.77" r="2.6"/><circle class="cls-2" cx="80.56" cy="3.77" r="2.6"/><circle class="cls-2" cx="88.23" cy="3.77" r="2.6"/><circle class="cls-2" cx="95.91" cy="3.77" r="2.6"/><circle class="cls-2" cx="3.77" cy="11.24" r="2.6"/><circle class="cls-2" cx="11.45" cy="11.24" r="2.6"/><circle class="cls-2" cx="19.13" cy="11.24" r="2.6"/><circle class="cls-2" cx="26.81" cy="11.24" r="2.6"/><circle class="cls-2" cx="34.48" cy="11.24" r="2.6"/><circle class="cls-2" cx="42.16" cy="11.24" r="2.6"/><circle class="cls-2" cx="49.84" cy="11.24" r="2.6"/><circle class="cls-2" cx="57.52" cy="11.24" r="2.6"/><circle class="cls-2" cx="65.2" cy="11.24" r="2.6"/><circle class="cls-2" cx="72.88" cy="11.24" r="2.6"/><circle class="cls-2" cx="80.56" cy="11.24" r="2.6"/><circle class="cls-2" cx="88.23" cy="11.24" r="2.6"/><circle class="cls-2" cx="95.91" cy="11.24" r="2.6"/><circle class="cls-2" cx="3.77" cy="18.71" r="2.6"/><circle class="cls-2" cx="11.45" cy="18.71" r="2.6"/><circle class="cls-2" cx="19.13" cy="18.71" r="2.6"/><circle class="cls-2" cx="26.81" cy="18.71" r="2.6"/><circle class="cls-2" cx="34.48" cy="18.71" r="2.6"/><circle class="cls-2" cx="42.16" cy="18.71" r="2.6"/><circle class="cls-2" cx="49.84" cy="18.71" r="2.6"/><circle class="cls-2" cx="57.52" cy="18.71" r="2.6"/><circle class="cls-2" cx="65.2" cy="18.71" r="2.6"/><circle class="cls-2" cx="72.88" cy="18.71" r="2.6"/><circle class="cls-2" cx="80.56" cy="18.71" r="2.6"/><circle class="cls-2" cx="88.23" cy="18.71" r="2.6"/><circle class="cls-2" cx="95.91" cy="18.71" r="2.6"/><circle class="cls-2" cx="3.77" cy="26.18" r="2.6"/><circle class="cls-2" cx="11.45" cy="26.18" r="2.6"/><circle class="cls-2" cx="19.13" cy="26.18" r="2.6"/><circle class="cls-2" cx="26.81" cy="26.18" r="2.6"/><circle class="cls-2" cx="34.48" cy="26.18" r="2.6"/><circle class="cls-2" cx="42.16" cy="26.18" r="2.6"/><circle class="cls-2" cx="49.84" cy="26.18" r="2.6"/><circle class="cls-2" cx="57.52" cy="26.18" r="2.6"/><circle class="cls-2" cx="65.2" cy="26.18" r="2.6"/><circle class="cls-2" cx="72.88" cy="26.18" r="2.6"/><circle class="cls-2" cx="80.56" cy="26.18" r="2.6"/><circle class="cls-2" cx="88.23" cy="26.18" r="2.6"/><circle class="cls-2" cx="95.91" cy="26.18" r="2.6"/><circle class="cls-2" cx="3.77" cy="33.65" r="2.6"/><circle class="cls-2" cx="11.45" cy="33.65" r="2.6"/><circle class="cls-2" cx="19.13" cy="33.65" r="2.6"/><circle class="cls-2" cx="26.81" cy="33.65" r="2.6"/><circle class="cls-2" cx="34.48" cy="33.65" r="2.6"/><circle class="cls-2" cx="42.16" cy="33.65" r="2.6"/><circle class="cls-2" cx="49.84" cy="33.65" r="2.6"/><circle class="cls-2" cx="57.52" cy="33.65" r="2.6"/><circle class="cls-2" cx="65.2" cy="33.65" r="2.6"/><circle class="cls-2" cx="72.88" cy="33.65" r="2.6"/><circle class="cls-2" cx="80.56" cy="33.65" r="2.6"/><circle class="cls-2" cx="88.23" cy="33.65" r="2.6"/><circle class="cls-2" cx="95.91" cy="33.65" r="2.6"/><circle class="cls-2" cx="3.77" cy="41.12" r="2.6"/><circle class="cls-2" cx="11.45" cy="41.12" r="2.6"/><circle class="cls-2" cx="19.13" cy="41.12" r="2.6"/><circle class="cls-2" cx="26.81" cy="41.12" r="2.6"/><circle class="cls-2" cx="34.48" cy="41.12" r="2.6"/><circle class="cls-2" cx="42.16" cy="41.12" r="2.6"/><circle class="cls-2" cx="49.84" cy="41.12" r="2.6"/><circle class="cls-2" cx="57.52" cy="41.12" r="2.6"/><circle class="cls-2" cx="65.2" cy="41.12" r="2.6"/><circle class="cls-2" cx="72.88" cy="41.12" r="2.6"/><circle class="cls-2" cx="80.56" cy="41.12" r="2.6"/><circle class="cls-2" cx="88.23" cy="41.12" r="2.6"/><circle class="cls-2" cx="95.91" cy="41.12" r="2.6"/><circle class="cls-2" cx="3.77" cy="48.59" r="2.6"/><circle class="cls-2" cx="11.45" cy="48.59" r="2.6"/><circle class="cls-2" cx="19.13" cy="48.59" r="2.6"/><circle class="cls-2" cx="26.81" cy="48.59" r="2.6"/><circle class="cls-2" cx="34.48" cy="48.59" r="2.6"/><circle class="cls-2" cx="42.16" cy="48.59" r="2.6"/><circle class="cls-2" cx="49.84" cy="48.59" r="2.6"/><circle class="cls-2" cx="57.52" cy="48.59" r="2.6"/><circle class="cls-2" cx="65.2" cy="48.59" r="2.6"/><circle class="cls-2" cx="72.88" cy="48.59" r="2.6"/><circle class="cls-2" cx="80.56" cy="48.59" r="2.6"/><circle class="cls-2" cx="88.23" cy="48.59" r="2.6"/><circle class="cls-2" cx="95.91" cy="48.59" r="2.6"/><circle class="cls-2" cx="3.77" cy="56.06" r="2.6"/><circle class="cls-2" cx="11.45" cy="56.06" r="2.6"/><circle class="cls-2" cx="19.13" cy="56.06" r="2.6"/><circle class="cls-2" cx="26.81" cy="56.06" r="2.6"/><circle class="cls-2" cx="34.48" cy="56.06" r="2.6"/><circle class="cls-2" cx="42.16" cy="56.06" r="2.6"/><circle class="cls-2" cx="49.84" cy="56.06" r="2.6"/><circle class="cls-2" cx="57.52" cy="56.06" r="2.6"/><circle class="cls-2" cx="65.2" cy="56.06" r="2.6"/><circle class="cls-2" cx="72.88" cy="56.06" r="2.6"/><circle class="cls-2" cx="80.56" cy="56.06" r="2.6"/><circle class="cls-2" cx="88.23" cy="56.06" r="2.6"/><circle class="cls-2" cx="95.91" cy="56.06" r="2.6"/><circle class="cls-2" cx="3.77" cy="63.53" r="2.6"/><circle class="cls-2" cx="11.45" cy="63.53" r="2.6"/><circle class="cls-2" cx="19.13" cy="63.53" r="2.6"/><circle class="cls-2" cx="26.81" cy="63.53" r="2.6"/><circle class="cls-2" cx="34.48" cy="63.53" r="2.6"/><circle class="cls-2" cx="42.16" cy="63.53" r="2.6"/><circle class="cls-2" cx="49.84" cy="63.53" r="2.6"/><circle class="cls-2" cx="57.52" cy="63.53" r="2.6"/><circle class="cls-2" cx="65.2" cy="63.53" r="2.6"/><circle class="cls-2" cx="72.88" cy="63.53" r="2.6"/><circle class="cls-2" cx="80.56" cy="63.53" r="2.6"/><circle class="cls-2" cx="88.23" cy="63.53" r="2.6"/><circle class="cls-2" cx="95.91" cy="63.53" r="2.6"/><circle class="cls-2" cx="3.77" cy="71" r="2.6"/><circle class="cls-2" cx="11.45" cy="71" r="2.6"/><circle class="cls-2" cx="19.13" cy="71" r="2.6"/><circle class="cls-2" cx="26.81" cy="71" r="2.6"/><circle class="cls-2" cx="34.48" cy="71" r="2.6"/><circle class="cls-2" cx="42.16" cy="71" r="2.6"/><circle class="cls-2" cx="49.84" cy="71" r="2.6"/><circle class="cls-2" cx="57.52" cy="71" r="2.6"/><circle class="cls-2" cx="65.2" cy="71" r="2.6"/><circle class="cls-2" cx="72.88" cy="71" r="2.6"/><circle class="cls-2" cx="80.56" cy="71" r="2.6"/><circle class="cls-2" cx="88.23" cy="71" r="2.6"/><circle class="cls-2" cx="95.91" cy="71" r="2.6"/><circle class="cls-2" cx="3.77" cy="78.47" r="2.6"/><circle class="cls-2" cx="11.45" cy="78.47" r="2.6"/><circle class="cls-2" cx="19.13" cy="78.47" r="2.6"/><circle class="cls-2" cx="26.81" cy="78.47" r="2.6"/><circle class="cls-2" cx="34.48" cy="78.47" r="2.6"/><circle class="cls-2" cx="42.16" cy="78.47" r="2.6"/><circle class="cls-2" cx="49.84" cy="78.47" r="2.6"/><circle class="cls-2" cx="57.52" cy="78.47" r="2.6"/><circle class="cls-2" cx="65.2" cy="78.47" r="2.6"/><circle class="cls-2" cx="72.88" cy="78.47" r="2.6"/><circle class="cls-2" cx="80.56" cy="78.47" r="2.6"/><circle class="cls-2" cx="88.23" cy="78.47" r="2.6"/><circle class="cls-2" cx="95.91" cy="78.47" r="2.6"/><circle class="cls-2" cx="3.77" cy="85.94" r="2.6"/><circle class="cls-2" cx="11.45" cy="85.94" r="2.6"/><circle class="cls-2" cx="19.13" cy="85.94" r="2.6"/><circle class="cls-2" cx="26.81" cy="85.94" r="2.6"/><circle class="cls-2" cx="34.48" cy="85.94" r="2.6"/><circle class="cls-2" cx="42.16" cy="85.94" r="2.6"/><circle class="cls-2" cx="49.84" cy="85.94" r="2.6"/><circle class="cls-2" cx="57.52" cy="85.94" r="2.6"/><circle class="cls-2" cx="65.2" cy="85.94" r="2.6"/><circle class="cls-2" cx="72.88" cy="85.94" r="2.6"/><circle class="cls-2" cx="80.56" cy="85.94" r="2.6"/><circle class="cls-2" cx="88.23" cy="85.94" r="2.6"/><circle class="cls-2" cx="95.91" cy="85.94" r="2.6"/></pattern></defs><title>Asset 4highest</title><g id="Layer_2" data-name="Layer 2"><g id="Layer_3" data-name="Layer 3"><polygon class="cls-1" points="87.96 123.48 124.99 123.48 106.47 91.41 87.96 123.48"/><polygon class="cls-1" points="39.13 123.48 83.76 123.48 104.38 87.77 82.06 49.13 39.13 123.48"/><polygon class="cls-1" points="130.89 49.13 108.57 87.77 129.19 123.48 173.82 123.48 130.89 49.13"/><path class="cls-3" d="M104.32,92.67l12,20.7c2,3.43,3.82,7,6,10.35,1.74,2.69,3.87,2.26,6.95,2.26a2.52,2.52,0,0,0,2.16-3.76L110.73,86.51a2.52,2.52,0,0,0-4.32,0l-2.1,3.63c-1.61,2.79,2.71,5.31,4.32,2.52l2.1-3.63h-4.32L127,124.74l2.16-3.76H125l2.16,1.24L108.63,90.15C107,87.36,102.7,89.88,104.32,92.67Z"/><polygon class="cls-4" points="39.13 123.48 82.06 49.13 104.38 87.77 106.47 84.14 82.06 41.85 32.84 127.12 81.66 127.12 83.76 123.48 39.13 123.48"/><path class="cls-5" d="M130.89,41.85,106.47,84.14l-2.1,3.63L83.76,123.48l-2.1,3.64h98.45Zm-1.7,81.63H88l18.52-32.07,2.1-3.63,22.31-38.65,42.93,74.36Z"/><text class="cls-6" transform="translate(20.16 157.55)">M<tspan class="cls-7" x="28.88" y="0">A</tspan><tspan x="49.4" y="0">TERIALS </tspan></text><path class="cls-2" d="M216,216H0V0H216ZM13,203H203V13H13Z"/></g></g></svg>